<svg id="_30_black" data-name="30_black" xmlns="http://www.w3.org/2000/svg" width="47.192" height="56.895" viewBox="0 0 47.192 56.895">
  <g id="Group_3141" data-name="Group 3141" transform="translate(0 0)">
    <g id="Group_3134" data-name="Group 3134" transform="translate(24.783 36.563)">
      <path id="Path_10" data-name="Path 10" d="M224.042,274.339a2.7,2.7,0,0,0-.759-.552,9.159,9.159,0,0,0-1.923-.679V278.2a3.615,3.615,0,0,0,2.85-1.5h0a2.325,2.325,0,0,0,.211-1.589A1.6,1.6,0,0,0,224.042,274.339Z" transform="translate(-221.36 -273.108)" fill="#6979f8"/>
    </g>
    <g id="Group_3135" data-name="Group 3135" transform="translate(27.627 40.149)">
      <path id="Path_11" data-name="Path 11" d="M242.6,299.91l.006-.01h0Z" transform="translate(-242.604 -299.9)" fill="#6979f8"/>
    </g>
    <g id="Group_3136" data-name="Group 3136" transform="translate(19.439 28.396)">
      <path id="Path_12" data-name="Path 12" d="M181.785,213.368a1.909,1.909,0,0,0-.33.895,2.145,2.145,0,0,0,.109.989,1.586,1.586,0,0,0,.616.678,4.813,4.813,0,0,0,.915.472c.267.108.568.21.891.31v-4.605A3.515,3.515,0,0,0,181.785,213.368Z" transform="translate(-181.441 -212.106)" fill="#6979f8"/>
    </g>
    <g id="Group_3137" data-name="Group 3137" transform="translate(27.633 40.112)">
      <path id="Path_13" data-name="Path 13" d="M242.668,299.619l-.021.037h0Z" transform="translate(-242.647 -299.619)" fill="#6979f8"/>
    </g>
    <g id="Group_3138" data-name="Group 3138" transform="translate(27.681 40.062)">
      <path id="Path_14" data-name="Path 14" d="M243,299.247Z" transform="translate(-243.004 -299.244)" fill="#6979f8"/>
    </g>
    <g id="Group_3139" data-name="Group 3139">
      <path id="Path_15" data-name="Path 15" d="M62.815,12.38C67.143,8.744,70.035.553,68.255.195c-2.365-.476-7.5,1.612-9.982,1.98-3.52.425-7.355-3.817-9.507-1.453-1.75,1.923,1.255,8.915,5.955,11.961-14.024,6.892-33.735,41.493.652,44C102.955,60.161,79.129,19.1,62.815,12.38ZM66.9,39.667a5,5,0,0,1-1.93,3.4,7.375,7.375,0,0,1-3.95,1.4v1.49a1.4,1.4,0,1,1-2.8,0V44.321c-.241-.046-.48-.1-.717-.165a6.87,6.87,0,0,1-3.423-2.106,6.171,6.171,0,0,1-1.055-1.744c-.065-.166-.124-.335-.175-.506a2.6,2.6,0,0,1-.11-.474,1.4,1.4,0,0,1,2.721-.581c.053.161.089.327.149.486a3.117,3.117,0,0,0,.215.459,3.567,3.567,0,0,0,.614.787,4.166,4.166,0,0,0,1.781.97V35.91a9.96,9.96,0,0,1-3.67-1.586,4.27,4.27,0,0,1-1.239-1.488,4.658,4.658,0,0,1-.432-2A4.774,4.774,0,0,1,53.3,28.8a4.946,4.946,0,0,1,1.148-1.575,7.01,7.01,0,0,1,3.774-1.672V24.008a1.4,1.4,0,1,1,2.8,0v1.539q.275.035.547.084A6.913,6.913,0,0,1,65.223,27.4a5.34,5.34,0,0,1,1.119,1.608,5.13,5.13,0,0,1,.2.512,3.111,3.111,0,0,1,.132.5,1.4,1.4,0,0,1-2.691.708c-.059-.153-.088-.315-.148-.467a2.465,2.465,0,0,0-.229-.441,2.669,2.669,0,0,0-.661-.693,4.537,4.537,0,0,0-1.921-.751v5.3a17.77,17.77,0,0,1,2.391.71,5.589,5.589,0,0,1,2.917,2.284c-.1-.174-.2-.343,0,.006s.1.179,0,.008A4.992,4.992,0,0,1,66.9,39.667Z" transform="translate(-36.238 0)" fill="#6979f8"/>
    </g>
    <g id="Group_3140" data-name="Group 3140" transform="translate(27.592 40.185)">
      <path id="Path_16" data-name="Path 16" d="M242.358,300.169l-.021.037Z" transform="translate(-242.337 -300.169)" fill="#6979f8"/>
    </g>
  </g>
</svg>
