<svg id="_10_black" data-name="10_black" xmlns="http://www.w3.org/2000/svg" width="66.452" height="56.096" viewBox="0 0 66.452 56.096">
  <g id="Group_3124" data-name="Group 3124" transform="translate(43.361 11.259)">
    <g id="Group_3123" data-name="Group 3123" transform="translate(0 0)">
      <path id="Path_4" data-name="Path 4" d="M357.1,131.846a5.234,5.234,0,0,0-5.223-5.2H340.824a6.033,6.033,0,0,0-5.309,3.161l-.768,1.416a5.866,5.866,0,0,1-.661,5.721,5.813,5.813,0,0,1,2.228.653l3.082-5.687a.357.357,0,0,1,.671.17v36.743a2.648,2.648,0,0,0,5.3,0v-21.17h1.143v21.17a2.649,2.649,0,0,0,5.3,0c0-34.2-.047-16.084-.048-36.947a.462.462,0,0,1,.924-.012l.081,16.215a2.207,2.207,0,0,0,2.207,2.2h.011a2.207,2.207,0,0,0,2.2-2.218Z" transform="translate(-334.086 -126.649)" fill="#6979f8"/>
    </g>
  </g>
  <g id="Group_3126" data-name="Group 3126" transform="translate(0 10.706)">
    <g id="Group_3125" data-name="Group 3125" transform="translate(0 0)">
      <path id="Path_5" data-name="Path 5" d="M46.635,139.059a3.778,3.778,0,0,0-3.77-3.751H34.314a3.778,3.778,0,0,0-3.77,3.751c0,.644,0,.1-.018,3.128l-1.756-.361s-3.93-10.817-5.337-14.91c-1.034-3.008-2.767-4.533-5.151-4.533H10.563c-2.384,0-4.117,1.525-5.151,4.533C3.81,131.577.173,141.529.136,141.629a2.228,2.228,0,1,0,4.184,1.53c.031-.085,2.643-7.232,4.427-12.282-.12.979.258-1.081-3.164,16.589A1.24,1.24,0,0,0,6.8,148.94H8.5V165.1a2.673,2.673,0,0,0,5.347,0V148.94H15V165.1a2.673,2.673,0,0,0,5.347,0V148.94h1.7a1.238,1.238,0,0,0,1.215-1.474c-3.423-17.672-3.044-15.61-3.164-16.589,1.784,5.051,4.4,12.2,4.427,12.282a2.227,2.227,0,0,0,2.01,1.46l5.252,1.079a1.593,1.593,0,0,0,1.913-1.551s.026-4.474.03-5a.307.307,0,0,1,.615,0c0,4.293,0,24.922,0,26.708a1.912,1.912,0,0,0,3.823,0V150.573h.825v15.279a1.912,1.912,0,0,0,3.823,0c0-10.987-.027-23.906-.033-26.775a.333.333,0,0,1,.665,0l.059,11.7a1.593,1.593,0,0,0,1.593,1.585h.008a1.593,1.593,0,0,0,1.585-1.595s0,0,0-.006C46.681,148.329,46.646,141.245,46.635,139.059Z" transform="translate(0 -122.383)" fill="#6979f8"/>
    </g>
  </g>
  <g id="Group_3128" data-name="Group 3128" transform="translate(50.668 0.116)">
    <g id="Group_3127" data-name="Group 3127" transform="translate(0 0)">
      <circle id="Ellipse_1" data-name="Ellipse 1" cx="4.574" cy="4.574" r="4.574" fill="#6979f8"/>
    </g>
  </g>
  <g id="Group_3130" data-name="Group 3130" transform="translate(34.45 13.96)">
    <g id="Group_3129" data-name="Group 3129" transform="translate(0 0)">
      <circle id="Ellipse_2" data-name="Ellipse 2" cx="4.153" cy="4.153" r="4.153" fill="#6979f8"/>
    </g>
  </g>
  <g id="Group_3132" data-name="Group 3132" transform="translate(9.805 0)">
    <g id="Group_3131" data-name="Group 3131">
      <path id="Path_6" data-name="Path 6" d="M80.165,39.9a4.617,4.617,0,1,0,4.617,4.617A4.617,4.617,0,0,0,80.165,39.9Z" transform="translate(-75.548 -39.898)" fill="#6979f8"/>
    </g>
  </g>
</svg>
