<svg id="_20_black" data-name="20_black" xmlns="http://www.w3.org/2000/svg" width="55.555" height="57.002" viewBox="0 0 55.555 57.002">
  <path id="Path_8" data-name="Path 8" d="M162.387,166.983l-29.517-9.08c-.011.034-.021.067-.032.1a4.412,4.412,0,0,1-2.1,2.447l5.78,1.778-.166,12.2a3.382,3.382,0,0,0,2.387,3.279l7.328,2.254a6.335,6.335,0,0,1,9.912-2.583L161,169.761l.484.149a1.531,1.531,0,1,0,.9-2.927Z" transform="translate(-107.913 -129.461)" fill="#6979f8"/>
  <circle id="Ellipse_3" data-name="Ellipse 3" cx="4.18" cy="4.18" r="4.18" transform="translate(39.869 48.641)" fill="#6979f8"/>
  <circle id="Ellipse_4" data-name="Ellipse 4" cx="4.97" cy="4.97" r="4.97" transform="translate(10.165 0)" fill="#6979f8"/>
  <path id="Path_9" data-name="Path 9" d="M26.9,75.032a2.251,2.251,0,0,0-1.389-2.865l-7.358-2.553-1.717-6.651,3.2,4.879.861.3,1.3-4.767a3.357,3.357,0,0,0-2.36-4.12l-5.777-1.57a3.357,3.357,0,0,0-4.12,2.36l-4.4,16.209a2.694,2.694,0,0,0,0,2.234l3.7,8.131L4.16,100.642a2.7,2.7,0,1,0,5.126,1.71L14.3,87.319a2.7,2.7,0,0,0-.1-1.974l-2.721-5.978a.558.558,0,0,1,1.007-.48l3.877,7.778V101.5a2.7,2.7,0,0,0,5.4,0V86.028a2.7,2.7,0,0,0-.284-1.205l-3.566-7.154.269-.99L14.83,75.515a4.3,4.3,0,0,1-2.895-3.559L12.2,64.57,14.1,71.909a2.252,2.252,0,0,0,1.442,1.565l8.5,2.948a2.252,2.252,0,0,0,2.865-1.39Z" transform="translate(-4.02 -47.197)" fill="#6979f8"/>
</svg>
