<svg id="logo-sparebank1ringerikehadeland" xmlns="http://www.w3.org/2000/svg" width="210.555" height="53.2" viewBox="0 0 210.555 53.2">
  <rect id="Rectangle_17" data-name="Rectangle 17" width="210.555" height="53.2" fill="none"/>
  <g id="Group_3223" data-name="Group 3223" transform="translate(11.497 7.755)">
    <g id="Group_3220" data-name="Group 3220" transform="translate(0 1.497)">
      <g id="Group_3218" data-name="Group 3218" transform="translate(25.239)">
        <path id="Path_35" data-name="Path 35" d="M60.939,33.057a23.706,23.706,0,0,1-6.395-.884c-.272-.136-.408-.272-.408-.544v-.136l.34-1.7c.068-.272.2-.34.408-.34h.2a24.312,24.312,0,0,0,5.579.816c2.109,0,3.946-.612,3.946-2.789s-1.9-2.449-4.354-2.789C57.538,24.281,54,23.532,54,19.247c0-4.422,3.334-5.647,7.211-5.647a20.014,20.014,0,0,1,5.987.884.577.577,0,0,1,.476.544v.2l-.34,1.633a.381.381,0,0,1-.408.34h-.068a23.571,23.571,0,0,0-5.374-.748c-1.9,0-3.878.34-3.878,2.517,0,2.109,2.109,2.449,4.422,2.721,2.993.476,6.395.884,6.395,5.647C68.354,31.764,64.749,33.057,60.939,33.057Z" transform="translate(-54 -13.6)" fill="#002776"/>
        <path id="Path_36" data-name="Path 36" d="M107.26,35.242a16.343,16.343,0,0,1-3.538.34c-2.721,0-6.123-.272-6.123-4.354,0-3.265,2.041-3.674,4.082-3.946l4.558-.748v-.816c0-.68-.068-1.225-.68-1.5a4.5,4.5,0,0,0-1.9-.272,18.189,18.189,0,0,0-4.354.68h-.2c-.136,0-.272-.068-.272-.2l-.34-1.565v-.068c0-.2.2-.34.272-.408a19.1,19.1,0,0,1,5.579-.884,8.765,8.765,0,0,1,3.878.68c1.293.68,1.565,1.9,1.565,3.265v7.007C109.573,34.562,108.961,34.834,107.26,35.242Zm-1.089-6.463-3.129.476c-1.02.136-2.041.272-2.041,1.973,0,1.973,1.633,2.109,2.857,2.109a8.328,8.328,0,0,0,2.313-.34Z" transform="translate(-67.939 -16.126)" fill="#002776"/>
        <path id="Path_37" data-name="Path 37" d="M125.307,24.317a15.256,15.256,0,0,0-3.606.34V35a.392.392,0,0,1-.408.408h-2.585A.434.434,0,0,1,118.3,35V24.045c0-1.02.612-1.293,1.837-1.633a16.8,16.8,0,0,1,4.354-.612h.408a1.17,1.17,0,0,1,.544.068.46.46,0,0,1,.2.408v1.633C125.715,24.113,125.647,24.317,125.307,24.317Z" transform="translate(-74.556 -16.221)" fill="#002776"/>
        <path id="Path_38" data-name="Path 38" d="M142.318,29.66a.55.55,0,0,1-.544.612h-8.5a2.521,2.521,0,0,0,1.02,2.313,4.638,4.638,0,0,0,2.993.748,12.365,12.365,0,0,0,3.538-.612h.136c.136,0,.272.136.34.34l.34,1.293v.136c0,.2-.136.272-.272.408a13.423,13.423,0,0,1-4.626.816c-4.966,0-6.939-1.973-6.939-6.939,0-4.762,1.293-7.075,6.259-7.075,2.585,0,4.15.68,5.034,1.9.884,1.157,1.157,2.789,1.157,4.9V29.66Zm-3.606-3.81c-.34-1.429-1.089-1.837-2.585-1.837-1.7,0-2.449.476-2.721,1.769a8.136,8.136,0,0,0-.2,2.313h5.715A7.652,7.652,0,0,0,138.712,25.85Z" transform="translate(-78.233 -16.19)" fill="#002776"/>
        <path id="Path_39" data-name="Path 39" d="M186.26,35.242a16.343,16.343,0,0,1-3.538.34c-2.721,0-6.123-.272-6.123-4.354,0-3.265,2.041-3.674,4.082-3.946l4.558-.748v-.816c0-.68-.068-1.225-.68-1.5a4.5,4.5,0,0,0-1.9-.272,18.189,18.189,0,0,0-4.354.68h-.2c-.136,0-.272-.068-.272-.2l-.34-1.565v-.068c0-.2.2-.34.272-.408a19.1,19.1,0,0,1,5.579-.884,8.765,8.765,0,0,1,3.878.68c1.293.68,1.565,1.9,1.565,3.265v7.007C188.573,34.562,187.961,34.834,186.26,35.242Zm-1.088-6.463-3.129.476c-1.02.136-2.041.272-2.041,1.973,0,1.973,1.633,2.109,2.857,2.109a8.328,8.328,0,0,0,2.313-.34V28.779Z" transform="translate(-93.194 -16.126)" fill="#002776"/>
        <path id="Path_40" data-name="Path 40" d="M208.765,35.342h-2.653a.392.392,0,0,1-.408-.408v-8.98c0-1.5-.544-1.973-1.9-1.973a16.139,16.139,0,0,0-3.2.408V34.934a.392.392,0,0,1-.408.408h-2.585a.361.361,0,0,1-.408-.408V23.981c0-.952.476-1.293,1.9-1.7a23.075,23.075,0,0,1,5.034-.68c3.2,0,4.966.816,4.966,3.878v9.456C209.173,35.206,209.037,35.342,208.765,35.342Z" transform="translate(-99.78 -16.158)" fill="#002776"/>
        <path id="Path_41" data-name="Path 41" d="M230.082,32.544c0,.136-.068.2-.272.2h-3.4a.5.5,0,0,1-.408-.136l-3.946-5.374h-.884v5.17a.392.392,0,0,1-.408.408h-2.653a.392.392,0,0,1-.408-.408V14.652a.517.517,0,0,1,.408-.544l2.517-.408h.136a.392.392,0,0,1,.408.408V24.993h.884l4.014-5.374a.374.374,0,0,1,.34-.2l3.129.068c.2,0,.272.136.272.2s0,.068-.068.136l-4.83,6.055,5.1,6.531A.211.211,0,0,1,230.082,32.544Z" transform="translate(-106.334 -13.632)" fill="#002776"/>
        <path id="Path_42" data-name="Path 42" d="M82.8,38.4" transform="translate(-63.207 -21.528)" fill="#002776"/>
        <path id="Path_43" data-name="Path 43" d="M84.6,21.6a16.141,16.141,0,0,0-5.17.816c-1.157.34-1.633.748-1.633,2.041V39.084a.412.412,0,0,0,.544.408l2.381-.476a.45.45,0,0,0,.408-.476V35.206a14.848,14.848,0,0,0,3.334.408c4.762,0,5.647-2.993,5.647-7.007C90.182,24.593,89.5,21.6,84.6,21.6Zm-.952,11.7a11.228,11.228,0,0,1-2.449-.272V24.457a12.306,12.306,0,0,1,2.653-.408c1.9,0,2.789.408,2.789,4.558C86.644,32.485,85.964,33.3,83.651,33.3Z" transform="translate(-61.609 -16.158)" fill="#002776"/>
        <path id="Path_44" data-name="Path 44" d="M160.412,32.944h-8.5a.439.439,0,0,1-.408-.408V14.508a.439.439,0,0,1,.408-.408h8.5c4.286,0,6.055,1.7,6.055,4.762,0,2.721-1.5,3.674-3.81,4.354,2.585.408,4.422,1.837,4.422,4.83C167.147,31.448,164.766,32.944,160.412,32.944Zm-.34-16.191h-4.9V22.2l4.762-.2c1.9-.068,2.925-.748,2.925-2.721C162.861,17.5,161.977,16.753,160.072,16.753ZM160,24.645l-4.762-.136v5.783H160c2.585,0,3.4-1.088,3.4-2.653C163.405,25.529,162.725,24.713,160,24.645Z" transform="translate(-85.17 -13.76)" fill="#002776"/>
      </g>
      <g id="Group_3219" data-name="Group 3219" transform="translate(0 25.443)">
        <path id="Path_45" data-name="Path 45" d="M23.839,59.7H22.547c-.136,0-.2-.068-.2-.136l-.136-1.9c-.068-.952-.816-1.157-1.837-1.225L18.6,56.37V59.5a.18.18,0,0,1-.2.2H17.1a.18.18,0,0,1-.2-.2V51.4a.18.18,0,0,1,.2-.2H21.05c1.769,0,2.789.612,2.789,2.381a2.088,2.088,0,0,1-1.9,2.109c1.088.2,1.9.544,1.973,2.177l.068,1.565C23.975,59.636,23.907,59.7,23.839,59.7Zm-3.061-7.279H18.6V55.35l1.837-.068c1.02-.068,1.7-.272,1.7-1.361C22.138,52.9,21.8,52.425,20.778,52.425Z" transform="translate(-16.9 -51.064)" fill="#002776"/>
        <path id="Path_46" data-name="Path 46" d="M85.839,59.7H84.547c-.136,0-.2-.068-.2-.136l-.136-1.9c-.068-.952-.816-1.157-1.837-1.225L80.6,56.37V59.5a.18.18,0,0,1-.2.2H79.1a.18.18,0,0,1-.2-.2V51.4a.18.18,0,0,1,.2-.2H83.05c1.769,0,2.789.612,2.789,2.381a2.088,2.088,0,0,1-1.9,2.109c1.088.2,1.9.544,1.973,2.177l.068,1.565C86.043,59.636,85.975,59.7,85.839,59.7Zm-3.061-7.279H80.6V55.35l1.837-.068c1.02-.068,1.7-.272,1.7-1.361C84.206,52.9,83.8,52.425,82.778,52.425Z" transform="translate(-36.721 -51.064)" fill="#002776"/>
        <path id="Path_47" data-name="Path 47" d="M32.4,59.64H31.1a.18.18,0,0,1-.2-.2v-8.1c0-.136.068-.136.2-.136L32.4,51c.136,0,.2.068.2.136v8.232C32.533,59.572,32.465,59.64,32.4,59.64Z" transform="translate(-21.376 -51)" fill="#002776"/>
        <path id="Path_48" data-name="Path 48" d="M44.983,59.672H42.4a.18.18,0,0,1-.2-.2L39.4,52.461H39l.136,7.007a.18.18,0,0,1-.2.2H37.7a.18.18,0,0,1-.2-.2v-8.1a.217.217,0,0,1,.2-.2h2.721c.136,0,.2.068.2.136l2.857,7.279h.136L43.555,51.3a.217.217,0,0,1,.2-.2h1.157a.18.18,0,0,1,.2.2v8.1C45.187,59.6,45.119,59.672,44.983,59.672Z" transform="translate(-23.486 -51.032)" fill="#002776"/>
        <path id="Path_49" data-name="Path 49" d="M59.443,52.565c0,.136-.068.136-.2.136H59.1a9.762,9.762,0,0,0-2.517-.408c-1.973,0-2.653.68-2.653,3.2s.68,3.129,2.653,3.129a12.275,12.275,0,0,0,1.361-.136V56.034l-1.361-.2a.146.146,0,0,1-.136-.136V54.81a.146.146,0,0,1,.136-.136h2.789c.136,0,.2.068.2.136v3.538c0,.612-.068.884-.68,1.088a8.3,8.3,0,0,1-2.313.272c-3.265,0-4.286-1.157-4.286-4.354C52.3,52.293,53.388,51,56.382,51a9.94,9.94,0,0,1,3.061.476q.2.1.2.2v.136Z" transform="translate(-28.217 -51)" fill="#002776"/>
        <path id="Path_50" data-name="Path 50" d="M72.547,59.7H67.1a.18.18,0,0,1-.2-.2V51.4a.18.18,0,0,1,.2-.2h5.442a.18.18,0,0,1,.2.2v.884a.18.18,0,0,1-.2.2H68.533v2.245H72.41a.18.18,0,0,1,.2.2v.884a.217.217,0,0,1-.2.2H68.533v2.517h4.014a.18.18,0,0,1,.2.2v.884A.3.3,0,0,1,72.547,59.7Z" transform="translate(-32.885 -51.064)" fill="#002776"/>
        <path id="Path_51" data-name="Path 51" d="M94.4,59.64H93.1a.18.18,0,0,1-.2-.2v-8.1c0-.136.068-.136.2-.136L94.4,51c.136,0,.2.068.2.136v8.232C94.6,59.572,94.533,59.64,94.4,59.64Z" transform="translate(-41.197 -51)" fill="#002776"/>
        <path id="Path_52" data-name="Path 52" d="M106.407,59.432V59.5a.146.146,0,0,1-.136.136h-1.7a.685.685,0,0,1-.2-.068l-2.789-3.538H101.1V59.5a.18.18,0,0,1-.2.2H99.6a.18.18,0,0,1-.2-.2V51.4a.18.18,0,0,1,.2-.2H100.9a.18.18,0,0,1,.2.2v3.4h.476l2.721-3.47c.068-.068.068-.068.2-.068h1.565a.146.146,0,0,1,.136.136.067.067,0,0,1-.068.068l-3.2,3.878Z" transform="translate(-43.275 -51.064)" fill="#002776"/>
        <path id="Path_53" data-name="Path 53" d="M117.947,59.7H112.5a.18.18,0,0,1-.2-.2V51.4a.18.18,0,0,1,.2-.2h5.442a.18.18,0,0,1,.2.2v.884a.18.18,0,0,1-.2.2h-4.014v2.245h3.878a.18.18,0,0,1,.2.2v.884a.217.217,0,0,1-.2.2h-3.878v2.517h4.014a.18.18,0,0,1,.2.2v.884A.3.3,0,0,1,117.947,59.7Z" transform="translate(-47.399 -51.064)" fill="#002776"/>
        <path id="Path_54" data-name="Path 54" d="M137.179,59.64h-1.293a.18.18,0,0,1-.2-.2V55.9H131.6v3.538a.18.18,0,0,1-.2.2H130.1a.18.18,0,0,1-.2-.2v-8.1c0-.136.068-.136.2-.136L131.4,51c.136,0,.2.068.2.136v3.47h4.082V51.34c0-.136.068-.136.136-.136l1.293-.2c.136,0,.136.068.136.136v8.232C137.315,59.572,137.247,59.64,137.179,59.64Z" transform="translate(-53.025 -51)" fill="#002776"/>
        <path id="Path_55" data-name="Path 55" d="M151.868,59.6a.146.146,0,0,1-.136.136h-1.361c-.136,0-.2-.068-.2-.136l-.952-2.993h-3.061L145.2,59.6c0,.068-.136.136-.2.136h-1.361a.146.146,0,0,1-.136-.136v-.068l2.721-8.1c0-.068.136-.136.2-.136h2.449c.068,0,.2.068.2.136l2.721,8.1A.067.067,0,0,1,151.868,59.6Zm-3.946-7.143h-.476l-.884,2.925h2.313Z" transform="translate(-57.373 -51.096)" fill="#002776"/>
        <path id="Path_56" data-name="Path 56" d="M162.206,59.7h-3.4a.18.18,0,0,1-.2-.2V51.4a.18.18,0,0,1,.2-.2h3.4c2.789,0,3.878,1.088,3.878,4.218C166.083,58.615,164.995,59.7,162.206,59.7Zm-.2-7.279h-1.769v6.055H162c1.7,0,2.381-.476,2.381-3.061C164.383,52.9,163.7,52.425,162,52.425Z" transform="translate(-62.201 -51.064)" fill="#002776"/>
        <path id="Path_57" data-name="Path 57" d="M178.747,59.7H173.3a.18.18,0,0,1-.2-.2V51.4a.18.18,0,0,1,.2-.2h5.442a.18.18,0,0,1,.2.2v.884a.18.18,0,0,1-.2.2h-4.014v2.245h3.878a.18.18,0,0,1,.2.2v.884a.217.217,0,0,1-.2.2h-3.878v2.517h4.014a.18.18,0,0,1,.2.2v.884C178.883,59.636,178.815,59.7,178.747,59.7Z" transform="translate(-66.836 -51.064)" fill="#002776"/>
        <path id="Path_58" data-name="Path 58" d="M190.71,59.64H185.4a.18.18,0,0,1-.2-.2v-8.1c0-.136.068-.136.2-.136L186.7,51c.136,0,.2.068.2.136v7.143h3.81a.18.18,0,0,1,.2.2v.952Q190.813,59.64,190.71,59.64Z" transform="translate(-70.704 -51)" fill="#002776"/>
        <path id="Path_59" data-name="Path 59" d="M203.168,59.6a.146.146,0,0,1-.136.136h-1.361c-.136,0-.2-.068-.2-.136l-.952-2.993h-3.061L196.5,59.6c0,.068-.136.136-.2.136h-1.361a.146.146,0,0,1-.136-.136v-.068l2.721-8.1c0-.068.136-.136.2-.136h2.449c.068,0,.2.068.2.136l2.721,8.1A.067.067,0,0,1,203.168,59.6Zm-3.946-7.143h-.476l-.884,2.925h2.313Z" transform="translate(-73.774 -51.096)" fill="#002776"/>
        <path id="Path_60" data-name="Path 60" d="M217.383,59.672H214.8a.18.18,0,0,1-.2-.2L211.8,52.461H211.4l.136,7.007a.18.18,0,0,1-.2.2H210.1a.18.18,0,0,1-.2-.2v-8.1a.217.217,0,0,1,.2-.2h2.721c.136,0,.2.068.2.136l2.857,7.279h.136l-.068-7.279a.217.217,0,0,1,.2-.2h1.157a.18.18,0,0,1,.2.2v8.1C217.587,59.6,217.519,59.672,217.383,59.672Z" transform="translate(-78.601 -51.032)" fill="#002776"/>
        <path id="Path_61" data-name="Path 61" d="M228.906,59.7h-3.4a.18.18,0,0,1-.2-.2V51.4a.18.18,0,0,1,.2-.2h3.4c2.789,0,3.878,1.088,3.878,4.218C232.783,58.615,231.695,59.7,228.906,59.7Zm-.2-7.279h-1.769v6.055H228.7c1.7,0,2.381-.476,2.381-3.061C231.083,52.9,230.4,52.425,228.7,52.425Z" transform="translate(-83.524 -51.064)" fill="#002776"/>
      </g>
    </g>
    <g id="Group_3222" data-name="Group 3222" transform="translate(153.613)">
      <path id="Path_62" data-name="Path 62" d="M261.9,11.4a19.689,19.689,0,0,0-5.715.884c7.619-1.633,15.1,1.5,17.824,7.892,3.129,7.415-1.361,16.4-10,20.069C256.25,43.51,247.746,41.4,243.8,35.619A18.888,18.888,0,1,0,261.9,11.4Z" transform="translate(-243.052 -11.4)" fill="#e60000"/>
      <path id="Path_63" data-name="Path 63" d="M263.653,40.46c8.64-3.674,13.13-12.654,10-20.069C270.933,14,263.381,10.866,255.83,12.5A18.936,18.936,0,0,0,242.7,30.527a19.6,19.6,0,0,0,.748,5.306C247.326,41.616,255.83,43.725,263.653,40.46Z" transform="translate(-242.7 -11.615)" fill="#af0000"/>
      <g id="Group_3221" data-name="Group 3221" transform="translate(11.701 7.347)">
        <path id="Path_64" data-name="Path 64" d="M271.873,42.269V22.88a.682.682,0,0,0-.68-.68h-4.422a1.371,1.371,0,0,0-.748.2l-5.647,2.925a.655.655,0,0,0-.476.68v3.2a.682.682,0,0,0,.68.68h3.606V45.126a19.323,19.323,0,0,0,4.966-1.361C270.1,43.221,270.989,42.745,271.873,42.269Z" transform="translate(-259.9 -22.2)" fill="#fff"/>
        <path id="Path_65" data-name="Path 65" d="M266.88,57.551h6.327a.682.682,0,0,0,.68-.68V51.7a20.732,20.732,0,0,1-2.721,1.429,19.323,19.323,0,0,1-4.966,1.361V56.87A.643.643,0,0,0,266.88,57.551Z" transform="translate(-261.914 -31.631)" fill="none"/>
      </g>
    </g>
  </g>
</svg>
